<svg xmlns="http://www.w3.org/2000/svg" fill="none" viewBox="0 0 26 26"><path stroke="currentColor" stroke-linecap="round" stroke-linejoin="round" stroke-width="1.75" d="M13.073 23.076c5.753 0 10.417-4.664 10.417-10.417S18.826 2.242 13.073 2.242 2.656 6.906 2.656 12.66 7.32 23.076 13.073 23.076Z"/><path stroke="currentColor" stroke-linecap="round" stroke-linejoin="round" stroke-width="1.75" d="M15.908 8.77c.51-.17.764-.255.933-.195a.52.52 0 0 1 .316.316c.06.169-.025.423-.195.932l-1.549 4.649a1.137 1.137 0 0 1-.114.277.52.52 0 0 1-.135.136c-.06.042-.133.066-.278.114l-4.649 1.55c-.509.17-.763.254-.932.194a.52.52 0 0 1-.316-.316c-.06-.17.025-.424.194-.933l1.55-4.648c.048-.145.072-.218.114-.278a.52.52 0 0 1 .135-.136c.06-.04.133-.065.278-.113l4.648-1.55Z"/></svg>