<svg xmlns="http://www.w3.org/2000/svg" fill="none" viewBox="0 0 24 24"><path fill="currentColor" fill-opacity=".75" d="M11.996 7.5a4.5 4.5 0 1 0 0 9 4.5 4.5 0 0 0 0-9Zm0 7.5a3 3 0 1 1 0-5.999 3 3 0 0 1 0 5.999Zm4.5-12.75h-9a5.256 5.256 0 0 0-5.25 5.25v9a5.256 5.256 0 0 0 5.25 5.25h9a5.256 5.256 0 0 0 5.25-5.25v-9a5.256 5.256 0 0 0-5.25-5.25Zm3.75 14.25a3.75 3.75 0 0 1-3.75 3.75h-9a3.75 3.75 0 0 1-3.75-3.75v-9a3.75 3.75 0 0 1 3.75-3.75h9a3.75 3.75 0 0 1 3.75 3.75v9Zm-2.25-9.375a1.125 1.125 0 1 1-2.25 0 1.125 1.125 0 0 1 2.25 0Z"/></svg>