<svg xmlns="http://www.w3.org/2000/svg" fill="none" viewBox="0 0 20 21"><path stroke="currentColor" stroke-linecap="round" stroke-linejoin="round" stroke-width="1.4" d="M14.167 8.32c0-.426-.163-.853-.489-1.178a1.661 1.661 0 0 0-1.178-.488m0 6.666a5 5 0 1 0-4.955-4.327c.048.362.073.543.056.657a.71.71 0 0 1-.097.289c-.056.1-.156.2-.355.399l-4.258 4.259c-.145.144-.217.216-.268.3a.834.834 0 0 0-.1.24c-.023.096-.023.198-.023.402v1.448c0 .467 0 .7.09.878.08.157.208.285.365.365.178.09.412.09.878.09h2v-1.666H7.5v-1.667h1.667l1.316-1.316c.198-.199.298-.298.399-.355a.709.709 0 0 1 .288-.097c.115-.016.296.008.658.056.22.03.444.045.672.045Z"/></svg>