<svg xmlns="http://www.w3.org/2000/svg" fill="none" viewBox="0 0 19 19"><path stroke="currentColor" stroke-linecap="round" stroke-linejoin="round" stroke-opacity=".94" stroke-width="1.5" d="M13.246 7.691v-1.5a3.75 3.75 0 1 0-7.5 0v1.5m3.75 3.375v1.5m-2.4 3.375h4.8c1.26 0 1.89 0 2.372-.245.423-.216.767-.56.983-.983.245-.481.245-1.111.245-2.372v-1.05c0-1.26 0-1.89-.245-2.371a2.25 2.25 0 0 0-.983-.983c-.482-.246-1.112-.246-2.372-.246h-4.8c-1.26 0-1.89 0-2.371.246a2.25 2.25 0 0 0-.984.983c-.245.481-.245 1.111-.245 2.371v1.05c0 1.26 0 1.89.245 2.372.216.423.56.768.984.983.48.245 1.111.245 2.371.245Z"/></svg>
