<svg xmlns="http://www.w3.org/2000/svg" fill="none" viewBox="0 0 20 21"><path stroke="currentColor" stroke-linecap="round" stroke-linejoin="round" stroke-width="1.4" d="M10.001 10.819h.005m4.162 0h.004m-8.337 0h.004M4.335 6.652h11.333c.933 0 1.4 0 1.757.182.313.16.568.415.728.728.182.357.182.824.182 1.757v3c0 .933 0 1.4-.182 1.757-.16.313-.415.568-.728.728-.357.182-.824.182-1.757.182H4.335c-.934 0-1.4 0-1.757-.182a1.667 1.667 0 0 1-.728-.728c-.182-.357-.182-.824-.182-1.757v-3c0-.933 0-1.4.182-1.757.16-.313.414-.568.728-.728.357-.182.823-.182 1.757-.182Zm5.875 4.167a.208.208 0 1 1-.417 0 .208.208 0 0 1 .417 0Zm4.166 0a.208.208 0 1 1-.416 0 .208.208 0 0 1 .416 0Zm-8.333 0a.208.208 0 1 1-.417 0 .208.208 0 0 1 .417 0Z"/></svg>