<svg xmlns="http://www.w3.org/2000/svg" fill="none" viewBox="0 0 20 21"><path stroke="currentColor" stroke-linecap="round" stroke-linejoin="round" stroke-width="1.4" d="M15 14.018c1.213.61 2.253 1.587 3.012 2.81.15.242.226.364.252.531.052.341-.18.76-.498.895-.156.066-.332.066-.683.066m-3.75-7.89a3.75 3.75 0 0 0 0-6.72m-1.667 3.36a3.75 3.75 0 1 1-7.5 0 3.75 3.75 0 0 1 7.5 0Zm-9.534 9.532c1.329-1.995 3.425-3.282 5.784-3.282s4.455 1.287 5.784 3.282c.291.437.437.656.42.935a.924.924 0 0 1-.33.615c-.222.168-.53.168-1.143.168H3.185c-.614 0-.92 0-1.144-.168a.924.924 0 0 1-.329-.615c-.017-.28.129-.498.42-.935Z"/></svg>