<svg xmlns="http://www.w3.org/2000/svg" fill="none" viewBox="0 0 20 21"><path stroke="currentColor" stroke-linecap="round" stroke-linejoin="round" stroke-width="1.4" d="M18.335 7.902H1.668m0 3.334h2.956c.45 0 .675 0 .892.038.194.035.382.092.562.17.202.089.39.214.764.463l.485.323c.374.25.562.375.764.463.18.08.369.136.562.17.217.04.443.04.893.04h.91c.451 0 .676 0 .894-.04.193-.034.381-.09.561-.17.203-.088.39-.213.765-.463l.484-.322c.375-.25.562-.375.765-.463a2.5 2.5 0 0 1 .561-.17c.218-.04.443-.04.893-.04h2.956M1.668 6.82v8c0 .933 0 1.4.182 1.757.16.313.414.568.728.728.357.182.823.182 1.757.182h11.333c.933 0 1.4 0 1.757-.182.313-.16.568-.415.728-.728.182-.357.182-.824.182-1.757v-8c0-.933 0-1.4-.182-1.757a1.667 1.667 0 0 0-.728-.728c-.357-.182-.824-.182-1.757-.182H4.335c-.934 0-1.4 0-1.757.182-.314.16-.569.415-.728.728-.182.357-.182.824-.182 1.757Z"/></svg>