<svg xmlns="http://www.w3.org/2000/svg" fill="none" viewBox="0 0 229 42"><path fill="#fff" d="M83.36 26.86c-.477-.069-.974.043-1.603.39-.213.123-.434.24-.659.349-.06.028-.12.058-.18.09-.673.318-1.39.576-2.14.77-.07.016-.138.035-.207.05-.942.225-1.937.347-2.965.347-5.952 0-10.795-4.023-10.795-8.968 0-4.946 4.841-8.969 10.795-8.969 1.024 0 2.015.12 2.954.343l-.003.003.042.007c.89.215 1.731.52 2.51.906.12.069.242.116.363.185.103.052.22.107.341.163l.007.003c.287.132.597.262.82.315.266.055.51.063.746.03a16.01 16.01 0 0 1 3.263-4.122 23.927 23.927 0 0 0-1.475-.966 17.095 17.095 0 0 0-2.456-1.312l-.04-.019a17.896 17.896 0 0 0-7.069-1.44c-9.097 0-16.5 6.672-16.5 14.871 0 8.199 7.401 14.87 16.5 14.87 3.73 0 7.169-1.125 9.935-3.013.376-.237.746-.483 1.096-.73a16.012 16.012 0 0 1-3.278-4.156l-.003.003ZM16.725 28.436h-.867L6.478 6.935a3.485 3.485 0 0 0-.324-.612c-.649-.962-1.671-1.132-3.495-1.132H0L12.699 34.8h7.186l9.318-22.04v-1.562c-.613-.668-2.441-2.76-3.007-4.538l-9.47 21.777Z"/><path fill="#5CD8FF" d="M51.973 14.979c.223-.078.444-.165.664-.259 2.052-.875 3.973-2.4 5.472-3.984 2.24-2.366 3.542-4.862 2.94-5.497-.899-.947-2.493.91-8.365 2.902-2.75.933-6.656-.324-8.072 2.288-.343.63-.54 1.488-.54 2.656 0-1.17-.197-2.024-.539-2.656-1.416-2.612-5.32-1.355-8.072-2.288a43.078 43.078 0 0 1-3.631-1.414c-2.989-1.325-4.058-2.2-4.734-1.488-.602.635.698 3.13 2.94 5.497.011.013.024.024.035.036 1.494 1.571 3.4 3.081 5.439 3.948.22.094.44.18.662.259 3.344 1.173 6.373 2.854 5.923 7.503-.244 2.534-1.54 6.883-1.698 9.155-.106 1.518 1.568 3.453 2.692 4.569.559.555.982.91.982.91s.423-.355.982-.91c1.124-1.118 2.798-3.051 2.692-4.569-.16-2.272-1.454-6.622-1.698-9.155-.45-4.648 2.579-6.33 5.925-7.503h.001Z"/><path fill="#fff" d="M30.02 12.076V34.8h.878c.167 0 .35-.01.572-.031l.075-.011c.16-.019.306-.04.45-.07l.07-.015a4.62 4.62 0 0 0 2.08-1.044c.901-.775 1.322-1.654 1.322-2.772.023-2.086.036-5.262.036-8.996 0-.926 0-3.608-.002-6.144-1.834-.706-3.746-1.976-5.481-3.643v.002ZM52.621 21.861c0 3.734.011 6.91.036 8.996 0 1.118.42 1.997 1.322 2.772a4.621 4.621 0 0 0 2.08 1.044l.07.014c.142.029.29.052.45.07l.075.01c.221.022.403.032.572.032h.878V12.074c-1.736 1.665-3.645 2.939-5.481 3.643-.002 2.535-.002 5.218-.002 6.144ZM108.96 28.132c-1.549-1.206-2.303-1.723-3.823-.884-.213.124-.434.24-.658.35a3.672 3.672 0 0 0-.18.089c-.673.318-1.39.577-2.141.77-.069.017-.138.036-.207.051-.942.225-1.936.347-2.965.347-5.952 0-10.795-4.024-10.795-8.969 0-4.945 4.842-8.969 10.795-8.969 1.024 0 2.015.121 2.954.344l-.003.003c.014.002.028.005.043.006.889.215 1.731.52 2.51.907.119.069.241.116.362.184.104.052.22.107.342.164l.006.003c.287.131.598.262.82.315 1.03.212 1.709-.257 2.943-1.217l.384-.3 1.974-1.54c-.707-.66-1.734-1.373-2.769-2a17.113 17.113 0 0 0-2.455-1.312l-.041-.019a17.893 17.893 0 0 0-7.068-1.44c-4.514 0-8.608 1.644-11.59 4.3a15.372 15.372 0 0 0-2.484 2.818c-1.538 2.259-2.426 4.914-2.426 7.753 0 2.84.878 5.468 2.4 7.72a15.396 15.396 0 0 0 2.499 2.845c2.982 2.66 7.08 4.307 11.6 4.307 3.729 0 7.168-1.126 9.934-3.013.906-.57 1.778-1.192 2.399-1.772l-1.974-1.54-.384-.3-.002-.001ZM120 37V5h-2v32h2ZM136.552 11.176c1.248.4 2.048 1.36 2.048 2.768 0 1.936-1.536 3.056-4.48 3.056h-5.792V5.8h5.472c2.8 0 4.24 1.168 4.24 2.912 0 1.12-.576 1.984-1.488 2.464Zm-3.072-3.424h-2.576v2.64h2.576c1.264 0 1.952-.448 1.952-1.328 0-.88-.688-1.312-1.952-1.312Zm.448 7.296c1.344 0 2.064-.416 2.064-1.376 0-.944-.72-1.392-2.064-1.392h-3.024v2.768h3.024Zm16.09 2.144c-3.184 0-5.072-1.824-5.072-5.12V5.8h2.592v6.176c0 2.128.928 3.008 2.496 3.008 1.584 0 2.496-.88 2.496-3.008V5.8h2.56v6.272c0 3.296-1.888 5.12-5.072 5.12ZM162.132 17V5.8h2.592V17h-2.592Zm9.73 0V5.8h2.592v9.088h5.616V17h-8.208Zm14.136 0V5.8h5.088c3.664 0 6.176 2.208 6.176 5.6 0 3.392-2.512 5.6-6.176 5.6h-5.088Zm2.592-2.128h2.368c2.224 0 3.68-1.328 3.68-3.472s-1.456-3.472-3.68-3.472h-2.368v6.944Zm17.683.048h6.096V17h-8.672V5.8h8.464v2.08h-5.888v2.432h5.2v2.016h-5.2v2.592ZM228.831 17h-2.784l-2.16-3.12h-2.384V17h-2.592V5.8h4.848c2.992 0 4.864 1.552 4.864 4.064 0 1.68-.848 2.912-2.304 3.536l2.512 3.6Zm-2.832-7.136c0-1.232-.8-1.952-2.384-1.952h-2.112v3.904h2.112c1.584 0 2.384-.736 2.384-1.952ZM128.328 36V24.8h5.088c3.664 0 6.176 2.208 6.176 5.6 0 3.392-2.512 5.6-6.176 5.6h-5.088Zm2.592-2.128h2.368c2.224 0 3.68-1.328 3.68-3.472s-1.456-3.472-3.68-3.472h-2.368v6.944ZM154.238 36l-.991-2.4h-5.201l-.992 2.4h-2.656l4.992-11.2h2.561l5.007 11.2h-2.72Zm-5.36-4.368h3.553l-1.776-4.288-1.777 4.288Zm18.99 4.56c-3.536 0-6.128-2.464-6.128-5.792s2.592-5.792 6.128-5.792c3.52 0 6.128 2.448 6.128 5.792s-2.608 5.792-6.128 5.792Zm0-2.208c2 0 3.504-1.456 3.504-3.584s-1.504-3.584-3.504-3.584-3.504 1.456-3.504 3.584 1.504 3.584 3.504 3.584Z"/></svg>