<svg xmlns="http://www.w3.org/2000/svg" fill="none" viewBox="0 0 260 50"><path fill="#fff" d="M100.342 32.33c-.574-.083-1.172.05-1.929.468-.256.149-.522.289-.792.42-.074.035-.146.07-.217.108a14.38 14.38 0 0 1-2.577.927c-.083.02-.166.043-.249.062-1.134.27-2.33.417-3.569.417-7.164 0-12.994-4.842-12.994-10.795S83.843 13.14 91.009 13.14c1.233 0 2.425.145 3.556.413l-.004.004.051.008c1.07.258 2.084.626 3.022 1.09.143.084.29.14.436.223.124.063.264.129.411.197l.008.003c.345.159.719.316.987.38.32.066.615.075.898.036a19.287 19.287 0 0 1 3.928-4.962c-.561-.4-1.167-.793-1.776-1.163a20.628 20.628 0 0 0-2.956-1.58l-.049-.022a21.541 21.541 0 0 0-8.508-1.733c-10.95 0-19.86 8.03-19.86 17.9 0 9.869 8.908 17.9 19.86 17.9 4.49 0 8.629-1.356 11.958-3.628.453-.285.899-.581 1.32-.88a19.26 19.26 0 0 1-3.945-5.001l-.004.004ZM20.132 34.23H19.09L7.797 8.349a4.195 4.195 0 0 0-.39-.736c-.78-1.16-2.011-1.363-4.206-1.363H0l15.286 35.639h8.65l11.216-26.53v-1.88c-.738-.804-2.939-3.322-3.62-5.462l-11.4 26.213Z"/><path fill="#5CD8FF" d="M62.56 18.03c.267-.094.533-.198.798-.31 2.47-1.054 4.782-2.89 6.587-4.797 2.697-2.848 4.263-5.852 3.538-6.617-1.081-1.14-3 1.097-10.069 3.494-3.31 1.123-8.012-.39-9.716 2.753-.413.76-.65 1.792-.65 3.198 0-1.408-.237-2.437-.648-3.197-1.705-3.145-6.404-1.631-9.716-2.754a51.843 51.843 0 0 1-4.372-1.703c-3.597-1.594-4.884-2.647-5.697-1.79-.725.764.84 3.766 3.538 6.616l.042.044c1.798 1.891 4.093 3.708 6.547 4.752.264.113.53.217.797.312 4.025 1.411 7.672 3.435 7.13 9.03-.294 3.05-1.853 8.286-2.044 11.02-.128 1.828 1.887 4.157 3.24 5.5a20.807 20.807 0 0 0 1.182 1.095s.51-.426 1.181-1.094c1.354-1.346 3.37-3.673 3.241-5.5-.193-2.735-1.75-7.97-2.044-11.02-.542-5.595 3.105-7.62 7.132-9.031h.002Z"/><path fill="#fff" d="M36.137 14.533v27.354h1.057c.202 0 .42-.012.688-.038l.091-.013c.193-.023.368-.05.542-.085l.085-.017a5.562 5.562 0 0 0 2.502-1.257c1.086-.933 1.591-1.991 1.591-3.337.029-2.51.044-6.334.044-10.828 0-1.115 0-4.343-.002-7.396-2.208-.85-4.509-2.378-6.598-4.385v.002ZM63.34 26.312c0 4.494.013 8.318.043 10.828 0 1.346.506 2.404 1.591 3.337a5.562 5.562 0 0 0 2.503 1.257l.085.017c.172.034.349.062.541.085l.091.01c.266.027.485.039.689.039h1.057V14.53c-2.09 2.005-4.388 3.537-6.598 4.385-.002 3.051-.002 6.28-.002 7.396ZM131.157 33.864c-1.865-1.451-2.772-2.074-4.601-1.064-.257.149-.523.289-.793.42a5.08 5.08 0 0 0-.217.108c-.81.383-1.672.695-2.576.927-.083.02-.166.043-.249.062-1.135.27-2.331.417-3.569.417-7.165 0-12.995-4.843-12.995-10.795 0-5.953 5.828-10.796 12.995-10.796 1.232 0 2.425.145 3.556.413l-.004.004.051.008c1.07.258 2.083.626 3.021 1.09.144.084.291.14.436.223.125.063.265.129.412.197l.007.003c.346.159.719.316.987.38 1.24.255 2.058-.31 3.543-1.465l.462-.36L134 11.782c-.852-.794-2.088-1.653-3.334-2.408-.93-.6-1.917-1.129-2.955-1.58l-.049-.022a21.541 21.541 0 0 0-8.508-1.733c-5.434 0-10.362 1.978-13.952 5.175a18.478 18.478 0 0 0-2.989 3.392c-1.852 2.72-2.92 5.915-2.92 9.333s1.057 6.581 2.89 9.291a18.526 18.526 0 0 0 3.006 3.426c3.59 3.203 8.523 5.184 13.963 5.184 4.49 0 8.629-1.355 11.958-3.627 1.091-.685 2.14-1.435 2.888-2.133l-2.377-1.853-.462-.36-.002-.003ZM146 45V6h-4v39h4ZM164.379 12.569c1.608.57 2.606 1.791 2.606 3.522 0 2.463-2.036 3.909-5.864 3.909h-7.696V5.748h7.289c3.746 0 5.578 1.527 5.578 3.726 0 1.364-.692 2.464-1.913 3.095Zm-4.194-3.91h-2.769v2.75h2.769c1.343 0 2.035-.469 2.035-1.385 0-.896-.692-1.364-2.035-1.364Zm.61 8.43c1.385 0 2.118-.469 2.118-1.446s-.733-1.445-2.118-1.445h-3.379v2.89h3.379Zm16.686 3.196c-4.214 0-6.698-2.382-6.698-6.637v-7.9h4.031v7.778c0 2.443 1.018 3.42 2.708 3.42 1.669 0 2.687-.977 2.687-3.42V5.748h3.97v7.9c0 4.255-2.484 6.637-6.698 6.637ZM188.742 20V5.748h4.032V20h-4.032Zm8.732 0V5.748h4.031v11.056h6.8V20h-10.831Zm14.259 0V5.748h6.739c4.723 0 7.96 2.749 7.96 7.126 0 4.377-3.237 7.126-7.96 7.126h-6.739Zm4.031-3.217h2.545c2.423 0 4.051-1.445 4.051-3.909 0-2.463-1.628-3.909-4.051-3.909h-2.545v7.818Zm18.612.102h7.452V20h-11.443V5.748h11.178v3.115h-7.187v2.403h6.332v3.013h-6.332v2.606ZM254.713 20l-2.586-3.787h-2.199V20h-4.031V5.748h6.515c3.889 0 6.332 2.016 6.332 5.273 0 2.097-1.018 3.645-2.79 4.5L259.029 20h-4.316Zm-.041-8.979c0-1.323-.835-2.097-2.504-2.097h-2.24v4.174h2.24c1.669 0 2.504-.774 2.504-2.077ZM153.425 45V30.748h6.739c4.724 0 7.961 2.749 7.961 7.126 0 4.377-3.237 7.126-7.961 7.126h-6.739Zm4.031-3.217h2.545c2.423 0 4.052-1.445 4.052-3.909 0-2.463-1.629-3.909-4.052-3.909h-2.545v7.818ZM182.547 45l-1.119-2.769h-6.027L174.282 45h-4.113l6.291-14.252h3.97L186.742 45h-4.195Zm-5.965-5.741h3.665l-1.833-4.56-1.832 4.56Zm20.123 6.026c-4.561 0-7.92-3.135-7.92-7.41 0-4.276 3.359-7.412 7.92-7.412 4.56 0 7.92 3.136 7.92 7.411 0 4.276-3.36 7.411-7.92 7.411Zm0-3.339c2.158 0 3.848-1.608 3.848-4.072 0-2.463-1.69-4.072-3.848-4.072s-3.848 1.609-3.848 4.072c0 2.464 1.69 4.072 3.848 4.072Z"/></svg>